{
  "source": "C:\\Users\\Peter\\Desktop\\stuff\\MIUN\\quantitative_research\\video_compression\\videos\\BVI-HD\\BVI-HD_CDVL_videos\\ORIG\\PlasmaAveragePan_1920x1080_60fps.mp4",
  "output": "C:\\Users\\Peter\\Desktop\\stuff\\MIUN\\quantitative_research\\video_compression\\compressed_videos\\BVI-HD\\h264\\4\\PlasmaAveragePan_1920x1080_60fps_h264.mp4",
  "codec": "h264",
  "ok": "Input #0, mov,mp4,m4a,3gp,3g2,mj2, from 'C:\\Users\\Peter\\Desktop\\stuff\\MIUN\\quantitative_research\\video_compression\\videos\\BVI-HD\\BVI-HD_CDVL_videos\\ORIG\\PlasmaAveragePan_1920x1080_60fps.mp4':\n  Metadata:\n    major_brand     : isom\n    minor_version   : 512\n    compatible_brands: isomiso2avc1mp41\n    encoder         : Lavf54.28.101\n  Duration: 00:00:05.00, start: 0.000000, bitrate: 73730 kb/s\n  Stream #0:0[0x1](und): Video: h264 (High 4:4:4 Predictive) (avc1 / 0x31637661), yuv420p(progressive), 1920x1080, 73727 kb/s, 60 fps, 60 tbr, 60 tbn (default)\n    Metadata:\n      handler_name    : VideoHandler\n      vendor_id       : [0][0][0][0]\n[out#0/mp4 @ 00000278621ea600] Codec AVOption b:a (set bitrate (in bits/s)) has not been used for any stream. The most likely reason is either wrong type (e.g. a video option with no video streams) or that it is a private option of some decoder which was not actually used for any stream.\nStream mapping:\n  Stream #0:0 -> #0:0 (h264 (native) -> h264 (libx264))\nPress [q] to stop, [?] for help\n[libx264 @ 0000027862ae0280] using cpu capabilities: MMX2 SSE2Fast SSSE3 SSE4.2 AVX FMA3 BMI2 AVX2\n[libx264 @ 0000027862ae0280] profile High, level 5.0, 4:2:0, 8-bit\n[libx264 @ 0000027862ae0280] 264 - core 165 r3222 b35605a - H.264/MPEG-4 AVC codec - Copyleft 2003-2025 - http://www.videolan.org/x264.html - options: cabac=1 ref=5 deblock=1:0:0 analyse=0x3:0x113 me=hex subme=8 psy=1 psy_rd=1.00:0.00 mixed_ref=1 me_range=16 chroma_me=1 trellis=2 8x8dct=1 cqm=0 deadzone=21,11 fast_pskip=1 chroma_qp_offset=-2 threads=18 lookahead_threads=3 sliced_threads=0 nr=0 decimate=1 interlaced=0 bluray_compat=0 constrained_intra=0 bframes=3 b_pyramid=2 b_adapt=1 b_bias=0 direct=3 weightb=1 open_gop=0 weightp=2 keyint=250 keyint_min=25 scenecut=40 intra_refresh=0 rc_lookahead=50 rc=cbr mbtree=1 bitrate=4000 ratetol=1.0 qcomp=0.60 qpmin=0 qpmax=69 qpstep=4 vbv_maxrate=4000 vbv_bufsize=4000 nal_hrd=none filler=0 ip_ratio=1.40 aq=1:1.00\nOutput #0, mp4, to 'C:\\Users\\Peter\\Desktop\\stuff\\MIUN\\quantitative_research\\video_compression\\compressed_videos\\BVI-HD\\h264\\4\\PlasmaAveragePan_1920x1080_60fps_h264.mp4':\n  Metadata:\n    major_brand     : isom\n    minor_version   : 512\n    compatible_brands: isomiso2avc1mp41\n    encoder         : Lavf62.3.100\n  Stream #0:0(und): Video: h264 (avc1 / 0x31637661), yuv420p(tv, progressive), 1920x1080, q=2-31, 4000 kb/s, 60 fps, 15360 tbn (default)\n    Metadata:\n      encoder         : Lavc62.11.100 libx264\n      handler_name    : VideoHandler\n      vendor_id       : [0][0][0][0]\n    Side data:\n      cpb: bitrate max/min/avg: 4000000/0/4000000 buffer size: 4000000 vbv_delay: N/A\nframe=    0 fps=0.0 q=0.0 size=       0KiB time=N/A bitrate=N/A speed=N/A elapsed=0:00:00.52    \nframe=   13 fps= 12 q=31.0 size=       0KiB time=00:00:00.16 bitrate=   2.3kbits/s speed=0.16x elapsed=0:00:01.04    \nframe=   42 fps= 26 q=31.0 size=     256KiB time=00:00:00.66 bitrate=3146.3kbits/s speed=0.42x elapsed=0:00:01.58    \nframe=   80 fps= 38 q=31.0 size=     512KiB time=00:00:01.23 bitrate=3401.1kbits/s speed=0.581x elapsed=0:00:02.12    \nframe=  110 fps= 40 q=31.0 size=     768KiB time=00:00:01.76 bitrate=3561.4kbits/s speed=0.638x elapsed=0:00:02.76    \nframe=  145 fps= 43 q=32.0 size=    1024KiB time=00:00:02.30 bitrate=3647.4kbits/s speed=0.682x elapsed=0:00:03.37    \nframe=  187 fps= 47 q=31.0 size=    1280KiB time=00:00:03.01 bitrate=3476.1kbits/s speed=0.763x elapsed=0:00:03.95    \nframe=  235 fps= 52 q=31.0 size=    1792KiB time=00:00:03.81 bitrate=3846.4kbits/s speed=0.843x elapsed=0:00:04.52    \nframe=  286 fps= 56 q=-1.0 size=    2048KiB time=00:00:04.71 bitrate=3557.1kbits/s speed=0.929x elapsed=0:00:05.07    \n[mp4 @ 00000278621ea700] Starting second pass: moving the moov atom to the beginning of the file\n[out#0/mp4 @ 00000278621ea600] video:2372KiB audio:0KiB subtitle:0KiB other streams:0KiB global headers:0KiB muxing overhead: 0.184919%\nframe=  300 fps= 57 q=-1.0 Lsize=    2376KiB time=00:00:04.96 bitrate=3919.1kbits/s speed=0.948x elapsed=0:00:05.23    \n[libx264 @ 0000027862ae0280] frame I:3     Avg QP:17.62  size: 18090\n[libx264 @ 0000027862ae0280] frame P:75    Avg QP:26.80  size: 11128\n[libx264 @ 0000027862ae0280] frame B:222   Avg QP:28.52  size:  6933\n[libx264 @ 0000027862ae0280] consecutive B-frames:  1.0%  0.7%  1.0% 97.3%\n[libx264 @ 0000027862ae0280] mb I  I16..4: 46.3% 52.8%  0.9%\n[libx264 @ 0000027862ae0280] mb P  I16..4:  0.8%  9.3%  0.3%  P16..4:  5.2%  1.7%  0.4%  0.0%  0.0%    skip:82.2%\n[libx264 @ 0000027862ae0280] mb B  I16..4:  0.3%  1.6%  0.0%  B16..8:  9.7%  3.3%  0.4%  direct: 0.7%  skip:84.0%  L0:49.3% L1:42.8% BI: 7.9%\n[libx264 @ 0000027862ae0280] 8x8 transform intra:80.7% inter:97.6%\n[libx264 @ 0000027862ae0280] direct mvs  spatial:95.5% temporal:4.5%\n[libx264 @ 0000027862ae0280] coded y,uvDC,uvAC intra: 37.0% 67.2% 56.0% inter: 3.2% 7.0% 1.2%\n[libx264 @ 0000027862ae0280] i16 v,h,dc,p: 74% 12%  5%  9%\n[libx264 @ 0000027862ae0280] i8 v,h,dc,ddl,ddr,vr,hd,vl,hu: 17% 11% 27%  6%  8%  8%  9%  7%  7%\n[libx264 @ 0000027862ae0280] i4 v,h,dc,ddl,ddr,vr,hd,vl,hu: 11% 15%  9%  6% 17% 11% 17%  5%  8%\n[libx264 @ 0000027862ae0280] i8c dc,h,v,p: 57% 16% 15% 11%\n[libx264 @ 0000027862ae0280] Weighted P-Frames: Y:1.3% UV:1.3%\n[libx264 @ 0000027862ae0280] ref P L0: 49.8%  3.1% 21.0% 14.2% 11.7%  0.2%\n[libx264 @ 0000027862ae0280] ref B L0: 77.2% 13.9%  6.5%  2.3%\n[libx264 @ 0000027862ae0280] ref B L1: 94.9%  5.1%\n[libx264 @ 0000027862ae0280] kb/s:3884.59\n",
  "seconds": 5.49550986289978,
  "probe_out": {}
}